<svg width="32" height="32" viewBox="0 0 32 32" fill="none" xmlns="http://www.w3.org/2000/svg">
    <rect width="32" height="32" rx="8" fill="#74C7EC"/>
    <path d="M13.5917 8.58998C13.8241 8.3563 14.1106 8.18363 14.4258 8.08732C14.7409 7.99102 15.0751 7.97407 15.3984 8.03797C15.7217 8.10188 16.0242 8.24466 16.2791 8.45363C16.5339 8.6626 16.7331 8.93127 16.8591 9.23578C16.985 9.54028 17.0337 9.87118 17.0009 10.1991C16.9681 10.5269 16.8548 10.8416 16.671 11.1151C16.4873 11.3887 16.2388 11.6126 15.9476 11.767C15.6564 11.9213 15.3316 12.0014 15.002 12H6M16.5924 23.41C16.8247 23.6437 17.1112 23.8164 17.4264 23.9127C17.7416 24.009 18.0757 24.0259 18.3991 23.962C18.7224 23.8981 19.0249 23.7553 19.2797 23.5464C19.5346 23.3374 19.7338 23.0687 19.8597 22.7642C19.9857 22.4597 20.0344 22.1288 20.0016 21.8009C19.9688 21.4731 19.8555 21.1584 19.6717 20.8849C19.4879 20.6113 19.2394 20.3874 18.9483 20.233C18.6571 20.0787 18.3323 19.9986 18.0027 20H6M21.7335 11.73C22.0244 11.4399 22.3824 11.2259 22.7757 11.107C23.169 10.9881 23.5855 10.9679 23.9885 11.0483C24.3915 11.1286 24.7684 11.307 25.086 11.5677C25.4036 11.8283 25.6521 12.1632 25.8094 12.5427C25.9667 12.9222 26.0281 13.3346 25.9881 13.7434C25.9481 14.1523 25.8079 14.545 25.58 14.8868C25.3521 15.2286 25.0434 15.509 24.6813 15.7031C24.3192 15.8973 23.9148 15.9993 23.5039 16H6"
          stroke="white" stroke-width="2" stroke-linecap="round" stroke-linejoin="round"/>
</svg>
